<?xml version="1.0" standalone="no"?>
<!DOCTYPE svg PUBLIC "-//W3C//DTD SVG 20010904//EN"
 "http://www.w3.org/TR/2001/REC-SVG-20010904/DTD/svg10.dtd">
<svg version="1.0" xmlns="http://www.w3.org/2000/svg"
 width="460.000000pt" height="460.000000pt" viewBox="0 0 460.000000 460.000000"
 preserveAspectRatio="xMidYMid meet">
<metadata>
Created by potrace 1.11, written by Peter Selinger 2001-2013
</metadata>
<g transform="translate(0.000000,460.000000) scale(0.100000,-0.100000)"
fill="#000000" stroke="none">
<path d="M0 2300 l0 -2300 2300 0 2300 0 0 2300 0 2300 -2300 0 -2300 0 0
-2300z m2516 987 l24 -28 0 -370 0 -370 -25 -24 c-24 -25 -26 -25 -205 -25
l-182 0 -29 29 -29 29 0 359 c1 278 4 363 14 382 26 47 48 51 234 48 l174 -2
24 -28z m-816 -425 c24 -11 39 -28 47 -52 15 -45 18 -977 3 -1031 -18 -64 -36
-69 -234 -69 -170 0 -176 1 -203 24 l-28 24 -3 524 -3 525 22 27 c12 15 31 32
43 36 11 5 89 9 171 9 124 1 156 -2 185 -17z m1575 4 c18 -8 38 -23 44 -34 16
-31 15 -1062 -2 -1083 -26 -34 -54 -39 -226 -39 -165 0 -171 1 -198 24 l-28
24 -3 524 -3 525 22 27 c12 15 31 32 43 36 37 15 312 12 351 -4z m-766 -742
l31 -26 0 -374 0 -375 -26 -24 c-26 -25 -30 -25 -205 -25 -174 0 -179 1 -206
24 l-28 24 -3 358 c-2 257 1 366 9 386 21 51 47 57 231 58 165 0 167 0 197
-26z"/>
</g>
</svg>
